<?xml version="1.0" encoding="UTF-8" standalone="no"?>
<!-- Generator: Adobe Illustrator 19.2.0, SVG Export Plug-In . SVG Version: 6.00 Build 0)  -->

<svg
   xmlns:dc="http://purl.org/dc/elements/1.1/"
   xmlns:cc="http://creativecommons.org/ns#"
   xmlns:rdf="http://www.w3.org/1999/02/22-rdf-syntax-ns#"
   xmlns:svg="http://www.w3.org/2000/svg"
   xmlns="http://www.w3.org/2000/svg"
   xmlns:sodipodi="http://sodipodi.sourceforge.net/DTD/sodipodi-0.dtd"
   xmlns:inkscape="http://www.inkscape.org/namespaces/inkscape"
   version="1.1"
   id="Layer_1"
   x="0px"
   y="0px"
   viewBox="0 0 390.7 244.5"
   style="enable-background:new 0 0 390.7 244.5;"
   xml:space="preserve"
   sodipodi:docname="ysu.svg"
   inkscape:version="0.92+devel unknown"><metadata
     id="metadata3578"><rdf:RDF><cc:Work
         rdf:about=""><dc:format>image/svg+xml</dc:format><dc:type
           rdf:resource="http://purl.org/dc/dcmitype/StillImage" /></cc:Work></rdf:RDF></metadata><defs
     id="defs3576" /><sodipodi:namedview
     pagecolor="#ffffff"
     bordercolor="#666666"
     inkscape:document-rotation="0"
     borderopacity="1"
     objecttolerance="10"
     gridtolerance="10"
     guidetolerance="10"
     inkscape:pageopacity="0"
     inkscape:pageshadow="2"
     inkscape:window-width="1920"
     inkscape:window-height="1016"
     id="namedview3574"
     showgrid="false"
     inkscape:zoom="3.2556237"
     inkscape:cx="195.35001"
     inkscape:cy="122.71074"
     inkscape:window-x="0"
     inkscape:window-y="27"
     inkscape:window-maximized="1"
     inkscape:current-layer="Layer_1" /><style
     type="text/css"
     id="style3565">
	.st0{fill:#A71E31;}
</style><g
     id="g3571"><path
       d="M353.8,80.2l0-57.1l-10.1,0l-121,0l-0.1,57.1c0,0,6.6,0,8.7,0c-9.6,8.2-14.7,12.6-19.5,16.7c-4.7-4.1-9.7-8.5-19.1-16.8   c0.6,0,13.4,0,13.4,0l-0.1-57l-169,0l0.1,57.1c0,0,27.4,0,33,0c5.1,4.5,77.7,67.5,84,72.9c0,2.4,0,3.5,0,7c-8.8,0-29.7,0-29.7,0   l0,61.1l142.3,0l0-61.1c0,0-20.4-0.1-29-0.1c0-4.1,0-5.6,0-8.2c6.3-5.4,78.5-67.3,83.7-71.7C326.7,80.2,353.8,80.2,353.8,80.2z    M227.5,147.3l0,23l29,0.1l0,40.9l-122,0l0-40.9l29.7,0l0-21.8L73.8,70.2l-26.6,0l-0.1-36.8l148.8,0L196,70l-30,0l45.8,40.3   l46.9-40.3h-25.9l0.1-36.8l110.9,0l0,36.8h-26.2L227.5,147.3z"
       id="path3567" /><path
       class="st0"
       d="M238.2,38.7c0,6.5,0,19.4-0.1,25.9c6.8,0,35.2,0,35.2,0l-61.7,53l-60.2-53c0,0,31.7,0,39,0   c0-6.6,0-19.3-0.1-25.8c-9.7,0-128,0-137.8,0c0,6.6,0,19.4,0.1,25.9c6.9,0,23.2,0,23.2,0l93.7,81.4l0,29.7c0,0-22.4,0-29.7,0   c0,6.9,0,23,0,30c9.5,0,101.6,0,111.1,0c0-6.9,0-23.1,0-30c-7.2,0-29-0.1-29-0.1l0-31l93.5-80.1c0,0,15.9,0,22.7,0   c0-6.5,0-19.4,0-25.9C328.8,38.7,247.5,38.7,238.2,38.7z"
       id="path3569" /></g><path
     style="fill:#ffffff;stroke-width:0.30716079"
     d="m 134.53217,190.77758 v -20.27262 h 14.8973 14.89729 V 159.47565 148.44634 L 119.13602,109.25486 73.945268,70.063379 H 60.621883 47.298499 V 51.787312 33.511244 h 74.179331 74.17934 v 7.936039 c 0,4.364821 0.0915,12.519941 0.20326,18.122488 l 0.20326,10.186448 h -15.12616 c -8.31939,0 -15.08008,0.117421 -15.02377,0.260933 0.16317,0.415837 45.38428,40.121608 45.80074,40.214718 0.31613,0.0707 43.70738,-36.909235 46.44398,-39.581577 l 0.91558,-0.894074 h -13.17428 -13.17427 l 0.20193,-7.141489 c 0.11106,-3.927819 0.20225,-12.152049 0.20264,-18.276068 l 7e-4,-11.134579 h 55.28895 55.28894 v 18.276068 18.276068 h -13.05735 -13.05736 l -45.14961,38.736151 -45.14962,38.73616 v 11.63821 11.63822 h 14.59014 14.59014 v 20.27262 20.27261 h -60.97142 -60.97142 z m 116.41394,0 V 175.7267 l -10.981,-0.002 c -6.03955,-6.1e-4 -12.536,-0.091 -14.43655,-0.20051 l -3.45556,-0.19898 v -15.26922 -15.26923 l 46.67135,-39.97279 46.67136,-39.972784 h 11.38204 11.38203 V 51.633731 38.425817 h -50.06721 -50.06721 v 13.205357 13.205358 l 17.25625,0.07934 17.25624,0.07935 -30.48024,26.182252 -30.48024,26.182256 -6.81825,-6.00638 c -3.75004,-3.30351 -17.13033,-15.085527 -29.73398,-26.182255 l -22.91572,-20.175873 19.153,-0.0791 19.15301,-0.0791 V 51.785004 38.732977 H 121.32425 52.213071 v 3.789476 c 0,2.084211 0.09137,7.95704 0.203033,13.050731 l 0.203033,9.261256 11.616624,0.08039 11.616625,0.08039 46.689334,40.54522 46.68935,40.54523 0.005,14.82051 0.005,14.82051 H 154.49762 139.7539 v 15.05088 15.05087 h 55.59611 55.5961 z"
     id="path3580"
     inkscape:connector-curvature="0" /></svg>